<svg width="100" height="100" viewBox="0 0 100 100" fill="none" xmlns="http://www.w3.org/2000/svg">
<path d="M80.3959 81.25C79.2813 83.1875 79.7751 84.75 77.9063 85.8271C76.0376 86.9062 73.8855 87.5 71.6459 87.5H28.3542C26.1167 87.5 23.9667 86.9063 22.0959 85.8292C20.2251 84.7521 20.7188 83.1875 19.6042 81.25L35.5834 62.5H64.4167L80.3959 81.25Z" fill="#1E88E5"/>
<path d="M57.2146 14.5812C59.45 14.577 61.5979 13.0895 63.4666 14.1687C65.3354 15.25 66.925 16.8145 68.0437 18.7541L89.6896 56.2458C90.8083 58.1833 91.3708 60.3437 91.3729 62.4999C91.375 64.6604 88.7333 66.8187 87.6104 68.752L64.4291 62.4916L50.0042 37.5062L57.2146 14.5812Z" fill="#FBC02D"/>
<path d="M91.3751 62.5C91.3751 64.6667 90.8126 66.8125 89.6876 68.75L82.0417 81.9792C80.9376 83.6042 79.5209 84.8958 77.8959 85.8333L64.4167 62.5H91.3751Z" fill="#E53935"/>
<path d="M12.3897 68.7521C11.2689 66.8187 8.6272 64.6604 8.6272 62.5021C8.62928 60.3437 9.1897 58.1833 10.3105 56.2437L31.9564 18.7521C33.0751 16.8146 34.6647 15.2479 36.5314 14.1687C38.4001 13.0875 40.5501 14.575 42.7855 14.5792L49.9918 37.5146L35.5709 62.4917L12.3897 68.7521Z" fill="#4CAF50"/>
<path d="M35.5833 62.5L22.1042 85.8333C20.4792 84.8958 19.0625 83.6042 17.9583 81.9792L10.3125 68.75C9.1875 66.8125 8.625 64.6667 8.625 62.5H35.5833Z" fill="#1565C0"/>
<path d="M63.4582 14.1667L49.9999 37.5L36.5208 14.1667C38.1458 13.2292 39.9791 12.6458 41.9374 12.5208L57.2082 12.5C59.4582 12.5 61.6041 13.0833 63.4582 14.1667Z" fill="#2E7D32"/>
</svg>
