<svg width="29" height="29" viewBox="0 0 29 29" fill="none" xmlns="http://www.w3.org/2000/svg">
<circle cx="14.5" cy="14.5" r="14" fill="white" stroke="black"/>
<path d="M19 12.25V8.5C19 7.30653 18.5259 6.16193 17.682 5.31802C16.8381 4.47411 15.6935 4 14.5 4C13.3065 4 12.1619 4.47411 11.318 5.31802C10.4741 6.16193 10 7.30653 10 8.5V12.25M9.25 23.5H19.75C20.3467 23.5 20.919 23.2629 21.341 22.841C21.7629 22.419 22 21.8467 22 21.25V14.5C22 13.9033 21.7629 13.331 21.341 12.909C20.919 12.4871 20.3467 12.25 19.75 12.25H9.25C8.65326 12.25 8.08097 12.4871 7.65901 12.909C7.23705 13.331 7 13.9033 7 14.5V21.25C7 21.8467 7.23705 22.419 7.65901 22.841C8.08097 23.2629 8.65326 23.5 9.25 23.5Z" stroke="black" stroke-width="1.5" stroke-linecap="round" stroke-linejoin="round"/>
</svg>
