<svg width="1312" height="1312" viewBox="0 0 1312 1312" fill="none" xmlns="http://www.w3.org/2000/svg">
<circle cx="656" cy="656" r="656" fill="#D9D9D9"/>
<g clip-path="url(#clip0_7_63)">
<mask id="mask0_7_63" style="mask-type:alpha" maskUnits="userSpaceOnUse" x="112" y="112" width="1088" height="1088">
<path d="M656 1200C956.443 1200 1200 956.443 1200 656C1200 355.557 956.443 112 656 112C355.557 112 112 355.557 112 656C112 956.443 355.557 1200 656 1200Z" fill="#DBDBDB"/>
</mask>
<g mask="url(#mask0_7_63)">
<path d="M656 656C766.457 656 856 566.457 856 456C856 345.543 766.457 256 656 256C545.543 256 456 345.543 456 456C456 566.457 545.543 656 656 656Z" fill="white"/>
<mask id="mask1_7_63" style="mask-type:alpha" maskUnits="userSpaceOnUse" x="148" y="140" width="1000" height="1000">
<path d="M648 1140C924.142 1140 1148 916.142 1148 640C1148 363.858 924.142 140 648 140C371.858 140 148 363.858 148 640C148 916.142 371.858 1140 648 1140Z" fill="#DBDBDB"/>
</mask>
<g mask="url(#mask1_7_63)">
<path d="M262.351 915.054C245.364 807.381 328.586 710 437.59 710H857.82C970.249 710 1055.11 812.016 1034.63 922.566C1028.67 954.769 1014.02 984.733 992.273 1009.22L956.818 1049.15C886.296 1128.56 785.165 1174 678.96 1174H632.771C530.133 1174 431.73 1133.08 359.35 1060.31L311.807 1012.51C285.477 986.041 268.17 951.935 262.351 915.054Z" fill="white"/>
</g>
</g>
</g>
<defs>
<clipPath id="clip0_7_63">
<rect width="1088" height="1088" fill="white" transform="translate(112 112)"/>
</clipPath>
</defs>
</svg>
