<svg width="331" height="331" viewBox="0 0 331 331" fill="none" xmlns="http://www.w3.org/2000/svg">
<g clip-path="url(#clip0_2_4)">
<path d="M158.667 1.46666C144.8 4.13333 135.467 10.2667 130 20.2667C119.733 38.6667 128.667 69.6 155.6 109.6C160.4 116.8 164.8 122.667 165.333 122.667C168.8 122.667 193.6 83.7333 199.6 68.9333C207.2 50.5333 208.933 32.4 204.133 22C197.733 7.73333 176 -2 158.667 1.46666Z" fill="white"/>
<path d="M63.2 38.5333C51.8667 43.8666 46.1333 49.4666 40.6667 60.2666C29.2 83.3333 38.2667 102.667 67.2 116.667C80.4 123.067 95.7333 127.867 116.133 132C135.867 136 135.2 136.267 134.133 126.267C130.533 94.1333 118 59.0666 104.933 45.6C94 34.2666 78 31.4666 63.2 38.5333Z" fill="white"/>
<path d="M237.6 40.1333C221.067 48.5333 206.4 77.3333 198.8 116.667C197.2 124.667 195.733 132.4 195.333 133.867C194.933 136.133 195.467 136.267 203.067 135.467C224.933 132.933 252.533 125.2 268.533 116.933C294.8 103.333 302.533 83.7333 290.533 61.3333C282.667 46.5333 270 38.4 253.333 37.7333C245.067 37.3333 242.267 37.7333 237.6 40.1333Z" fill="white"/>
<path d="M28.4 124C17.2 126.267 9.06666 133.333 3.46666 145.2C-0.666677 154.267 -0.533344 174 3.86666 183.6C7.46666 191.867 16.1333 200.267 23.4667 202.8C37.2 207.6 58.4 203.2 82.6667 190.533C96.4 183.333 121.333 167.067 121.333 165.333C121.333 162.667 92 142.8 77.0667 135.2C58.6667 125.867 40.1333 121.6 28.4 124Z" fill="white"/>
<path d="M282.667 127.6C275.6 128.8 261.6 133.733 251.067 138.933C238.667 144.933 208 164.533 208 166.533C208 169.333 235.467 187.733 253.067 196.533C274.267 207.2 291.867 210.533 305.467 206.4C312.933 204.267 320.667 197.067 324.933 188.267C328.267 181.467 328.667 179.2 328.667 167.333C328.667 155.867 328.133 153.067 325.333 147.467C317.333 131.2 302.533 124.267 282.667 127.6Z" fill="white"/>
<path d="M154.667 147.867C144.933 152.933 141.067 167.2 147.067 176C152 183.333 156.667 186 164.667 186C172.667 186 177.333 183.467 182.4 175.867C186.4 170.133 186 159.867 181.6 153.733C175.867 145.733 163.733 143.067 154.667 147.867Z" fill="white"/>
<path d="M118.4 197.467C59.8667 207.467 31.8667 225.733 33.6 252.533C34.2667 262.533 39.4667 274.133 46.6667 281.333C57.8667 292.533 76.2667 297.467 89.0667 292.533C106.933 285.733 122.533 256.667 130.533 215.333C132.133 207.2 133.6 199.6 133.867 198.4C134.133 197.067 134 195.733 133.6 195.467C133.067 195.2 126.267 196.133 118.4 197.467Z" fill="white"/>
<path d="M194.667 200.4C194.8 206.267 200.533 235.067 203.867 245.733C214.933 281.733 231.6 299.067 253.067 296.933C274.4 294.667 291.6 276.8 293.067 255.333C293.6 247.067 293.2 244.933 290.267 239.067C281.6 222.133 257.733 209.467 218.4 200.933C192.933 195.333 194.667 195.333 194.667 200.4Z" fill="white"/>
<path d="M162 209.867C142.533 236.8 128.533 261.867 124.667 276.667C122.267 286 122 300.4 124.133 306.8C132.4 331.467 172.933 338.933 193.067 319.6C200.933 312.133 203.2 306.133 203.2 293.333C203.067 274.533 195.2 254.933 175.867 225.333C165.2 208.933 163.867 207.333 162 209.867Z" fill="white"/>
</g>
<defs>
<clipPath id="clip0_2_4">
<rect width="330.667" height="330.667" fill="white"/>
</clipPath>
</defs>
</svg>
