<svg width="464" height="124" viewBox="0 0 464 124" fill="none" xmlns="http://www.w3.org/2000/svg">
<path d="M61.76 69.7236C65.9248 69.7236 69.301 66.3474 69.301 62.1826C69.301 58.0178 65.9248 54.6416 61.76 54.6416C57.5952 54.6416 54.219 58.0178 54.219 62.1826C54.219 66.3474 57.5952 69.7236 61.76 69.7236Z" fill="#E23E57"/>
<path d="M62.0658 45.9959C96.5298 1.30859 62.5931 0.424011 62.5931 0.424011C62.5931 0.424011 28.645 0.522618 62.0658 45.9959Z" fill="#E23E57"/>
<path d="M50.5292 50.5188C43.2997 -5.44789 18.6789 17.9225 18.6789 17.9225C18.6789 17.9225 -5.25599 41.9975 50.5292 50.5188Z" fill="#E23E57"/>
<path d="M45.569 61.8782C0.884571 27.4113 0 61.3495 0 61.3495C0 61.3495 0.098601 95.299 45.569 61.8782Z" fill="#E23E57"/>
<path d="M50.0948 73.4148C-5.87475 80.6443 17.4985 105.265 17.4985 105.265C17.4985 105.265 41.5735 129.204 50.0948 73.4148Z" fill="#E23E57"/>
<path d="M61.4528 78.375C26.9873 123.062 60.9254 123.944 60.9254 123.944C60.9254 123.944 94.8722 123.845 61.4528 78.375Z" fill="#E23E57"/>
<path d="M72.9908 73.8506C80.2174 129.817 104.84 106.447 104.84 106.447C104.84 106.447 128.776 82.372 72.9908 73.8506Z" fill="#E23E57"/>
<path d="M77.951 62.4927C122.638 96.9567 123.52 63.02 123.52 63.02C123.52 63.02 123.42 29.0719 77.951 62.4927Z" fill="#E23E57"/>
<path d="M73.4238 50.9547C129.393 43.7223 106.021 19.1029 106.021 19.1029C106.021 19.1029 81.9465 -4.83197 73.4238 50.9547Z" fill="#E23E57"/>
<path d="M225.086 59.8573L239.667 97.7785H207.9L201.08 78.5962C195.924 84.7501 190.214 91.4031 185.502 97.7785H154.4L186.722 59.8573H181.732L185.17 55.8656C179.404 42.3939 174.968 28.0899 169.369 14.5626H201.192L207.457 32.3034C212.003 26.3158 217.214 20.6609 221.926 14.5626H252.918L218.267 55.2002L220.208 59.8572L225.086 59.8573ZM248.979 61.4094C252.582 45.9416 256.186 30.4182 259.79 14.9505H293.054C312.957 14.9505 326.872 25.2623 317.725 47.8264C315.396 53.4259 312.292 57.9163 308.744 61.4094H313.789C305.085 69.7808 293.054 72.6086 279.194 72.6086L273.428 97.5014H245.819L254.134 61.41L248.979 61.4094ZM282.631 35.5174C281.467 40.9505 280.137 46.4946 278.917 52.1495C292.721 51.4288 297.877 35.5174 282.631 35.5174ZM328.037 61.4094H322.936L333.581 14.9505H361.412L350.656 61.4094H355.812L352.153 76.5445H382.922L378.155 97.5009H319.664L328.037 61.4094ZM390.684 59.8573H385.639L395.951 14.5627C405.597 14.5627 423.005 13.6202 436.755 15.4498C448.896 17.2239 460.65 21.7144 458.598 36.2954C457.434 45.1102 450.67 54.147 443.353 59.8576H448.342C447.012 60.8555 445.681 61.9089 444.24 62.6296L463.2 97.7786H429.936L416.076 70.6683L409.922 97.7786H381.98L390.684 59.8573ZM419.291 35.0746L415.909 49.378C429.27 49.378 436.755 35.0746 419.291 35.0746Z" fill="#E23E57"/>
</svg>
